<svg width="41" height="33" viewBox="0 0 41 33" fill="none" xmlns="http://www.w3.org/2000/svg">
<path d="M27.8211 16.9359C27.8211 16.9359 27.4054 22.3814 21.5285 23.4898C15.6516 24.5983 13.3604 19.6207 13.3604 19.6207C13.3604 19.6207 13.6811 14.1505 19.558 13.0421C25.4348 11.9337 27.8211 16.9359 27.8211 16.9359Z" fill="white" stroke="#3C965A" stroke-width="1.5"/>
<path d="M23.9828 9.37465C23.9828 9.37465 26.3948 14.1426 21.9248 18.1157C17.4549 22.0888 12.9299 18.9984 12.9299 18.9984C12.9299 18.9984 10.3916 14.1422 14.8616 10.1691C19.3315 6.19598 23.9828 9.37465 23.9828 9.37465Z" fill="#50C878" stroke="#3C965A" stroke-width="1.5"/>
<path d="M12.6896 24.0692C12.1255 19.5561 13.254 16.8483 18.331 14.0276" stroke="#3C965A" stroke-width="1.5" stroke-linecap="square"/>
</svg>
